<mxfile host="app.diagrams.net" agent="Mozilla/5.0 (Windows NT 10.0; Win64; x64) AppleWebKit/537.36 (KHTML, like Gecko) Chrome/132.0.0.0 Safari/537.36" version="26.0.13">
  <diagram id="R2lEEEUBdFMjLlhIrx00" name="Page-1">
    <mxGraphModel dx="1550" dy="1448" grid="1" gridSize="10" guides="1" tooltips="1" connect="1" arrows="1" fold="1" page="1" pageScale="1" pageWidth="850" pageHeight="1100" math="0" shadow="0" extFonts="Permanent Marker^https://fonts.googleapis.com/css?family=Permanent+Marker">
      <root>
        <mxCell id="0" />
        <mxCell id="1" parent="0" />
        <mxCell id="l5c5falu1orTu4ODNzKj-1" value="" style="rounded=0;whiteSpace=wrap;html=1;" parent="1" vertex="1">
          <mxGeometry x="227.5" y="-28.75" width="120" height="60" as="geometry" />
        </mxCell>
        <mxCell id="l5c5falu1orTu4ODNzKj-2" value="Doctor" style="text;html=1;align=center;verticalAlign=middle;whiteSpace=wrap;rounded=0;" parent="1" vertex="1">
          <mxGeometry x="257.5" y="-13.75" width="60" height="30" as="geometry" />
        </mxCell>
        <mxCell id="l5c5falu1orTu4ODNzKj-3" value="" style="rounded=0;whiteSpace=wrap;html=1;" parent="1" vertex="1">
          <mxGeometry x="755" y="51.25" width="120" height="60" as="geometry" />
        </mxCell>
        <mxCell id="l5c5falu1orTu4ODNzKj-4" value="Nurse" style="text;html=1;align=center;verticalAlign=middle;whiteSpace=wrap;rounded=0;" parent="1" vertex="1">
          <mxGeometry x="785" y="66.25" width="60" height="30" as="geometry" />
        </mxCell>
        <mxCell id="l5c5falu1orTu4ODNzKj-5" value="" style="rounded=0;whiteSpace=wrap;html=1;" parent="1" vertex="1">
          <mxGeometry x="227.5" y="-800" width="120" height="60" as="geometry" />
        </mxCell>
        <mxCell id="l5c5falu1orTu4ODNzKj-7" value="" style="rounded=0;whiteSpace=wrap;html=1;" parent="1" vertex="1">
          <mxGeometry x="-230" y="121.25" width="120" height="60" as="geometry" />
        </mxCell>
        <mxCell id="l5c5falu1orTu4ODNzKj-8" value="Medical Records" style="text;html=1;align=center;verticalAlign=middle;whiteSpace=wrap;rounded=0;" parent="1" vertex="1">
          <mxGeometry x="-200" y="136.25" width="60" height="30" as="geometry" />
        </mxCell>
        <mxCell id="l5c5falu1orTu4ODNzKj-9" value="" style="rounded=0;whiteSpace=wrap;html=1;" parent="1" vertex="1">
          <mxGeometry x="780" y="570" width="120" height="60" as="geometry" />
        </mxCell>
        <mxCell id="l5c5falu1orTu4ODNzKj-10" value="Pharmacy" style="text;html=1;align=center;verticalAlign=middle;whiteSpace=wrap;rounded=0;" parent="1" vertex="1">
          <mxGeometry x="810" y="585" width="60" height="30" as="geometry" />
        </mxCell>
        <mxCell id="l5c5falu1orTu4ODNzKj-11" value="" style="rounded=0;whiteSpace=wrap;html=1;" parent="1" vertex="1">
          <mxGeometry x="1195" y="-233.75" width="120" height="60" as="geometry" />
        </mxCell>
        <mxCell id="l5c5falu1orTu4ODNzKj-12" value="Medicine" style="text;html=1;align=center;verticalAlign=middle;whiteSpace=wrap;rounded=0;" parent="1" vertex="1">
          <mxGeometry x="1225" y="-218.75" width="60" height="30" as="geometry" />
        </mxCell>
        <mxCell id="l5c5falu1orTu4ODNzKj-13" value="" style="rounded=0;whiteSpace=wrap;html=1;" parent="1" vertex="1">
          <mxGeometry x="222.5" y="-455" width="120" height="60" as="geometry" />
        </mxCell>
        <mxCell id="l5c5falu1orTu4ODNzKj-14" value="Appoinment" style="text;html=1;align=center;verticalAlign=middle;whiteSpace=wrap;rounded=0;" parent="1" vertex="1">
          <mxGeometry x="252.5" y="-440" width="60" height="30" as="geometry" />
        </mxCell>
        <mxCell id="l5c5falu1orTu4ODNzKj-15" value="" style="rhombus;whiteSpace=wrap;html=1;" parent="1" vertex="1">
          <mxGeometry x="247.5" y="-660" width="80" height="80" as="geometry" />
        </mxCell>
        <mxCell id="l5c5falu1orTu4ODNzKj-16" value="Patient" style="text;html=1;align=center;verticalAlign=middle;whiteSpace=wrap;rounded=0;" parent="1" vertex="1">
          <mxGeometry x="257.5" y="-785" width="60" height="30" as="geometry" />
        </mxCell>
        <mxCell id="l5c5falu1orTu4ODNzKj-17" value="Books" style="text;html=1;align=center;verticalAlign=middle;whiteSpace=wrap;rounded=0;" parent="1" vertex="1">
          <mxGeometry x="257.5" y="-635" width="60" height="30" as="geometry" />
        </mxCell>
        <mxCell id="l5c5falu1orTu4ODNzKj-18" value="" style="rounded=0;whiteSpace=wrap;html=1;" parent="1" vertex="1">
          <mxGeometry x="220" y="310" width="120" height="60" as="geometry" />
        </mxCell>
        <mxCell id="l5c5falu1orTu4ODNzKj-19" value="Prescription&lt;div&gt;&lt;br&gt;&lt;/div&gt;" style="text;html=1;align=center;verticalAlign=middle;whiteSpace=wrap;rounded=0;" parent="1" vertex="1">
          <mxGeometry x="240" y="327.5" width="70" height="25" as="geometry" />
        </mxCell>
        <mxCell id="l5c5falu1orTu4ODNzKj-23" value="" style="rhombus;whiteSpace=wrap;html=1;" parent="1" vertex="1">
          <mxGeometry x="780" y="-223.75" width="70" height="80" as="geometry" />
        </mxCell>
        <mxCell id="l5c5falu1orTu4ODNzKj-24" value="Checks" style="text;html=1;align=center;verticalAlign=middle;whiteSpace=wrap;rounded=0;" parent="1" vertex="1">
          <mxGeometry x="790" y="-198.75" width="60" height="30" as="geometry" />
        </mxCell>
        <mxCell id="l5c5falu1orTu4ODNzKj-25" value="" style="rhombus;whiteSpace=wrap;html=1;" parent="1" vertex="1">
          <mxGeometry x="237.5" y="-290" width="80" height="80" as="geometry" />
        </mxCell>
        <mxCell id="l5c5falu1orTu4ODNzKj-26" value="Has" style="text;html=1;align=center;verticalAlign=middle;whiteSpace=wrap;rounded=0;" parent="1" vertex="1">
          <mxGeometry x="247.5" y="-265" width="60" height="30" as="geometry" />
        </mxCell>
        <mxCell id="l5c5falu1orTu4ODNzKj-33" value="" style="rhombus;whiteSpace=wrap;html=1;" parent="1" vertex="1">
          <mxGeometry x="247.5" y="146.25" width="80" height="80" as="geometry" />
        </mxCell>
        <mxCell id="l5c5falu1orTu4ODNzKj-34" value="Provides" style="text;html=1;align=center;verticalAlign=middle;whiteSpace=wrap;rounded=0;" parent="1" vertex="1">
          <mxGeometry x="257.5" y="171.25" width="60" height="30" as="geometry" />
        </mxCell>
        <mxCell id="l5c5falu1orTu4ODNzKj-41" value="" style="rhombus;whiteSpace=wrap;html=1;" parent="1" vertex="1">
          <mxGeometry x="37.5" y="111.25" width="100" height="95" as="geometry" />
        </mxCell>
        <mxCell id="l5c5falu1orTu4ODNzKj-42" value="Access/&lt;div&gt;Retrieve&lt;/div&gt;" style="text;html=1;align=center;verticalAlign=middle;whiteSpace=wrap;rounded=0;" parent="1" vertex="1">
          <mxGeometry x="57.5" y="143.75" width="60" height="30" as="geometry" />
        </mxCell>
        <mxCell id="l5c5falu1orTu4ODNzKj-43" value="" style="rhombus;whiteSpace=wrap;html=1;" parent="1" vertex="1">
          <mxGeometry x="1220" y="-590" width="80" height="80" as="geometry" />
        </mxCell>
        <mxCell id="l5c5falu1orTu4ODNzKj-44" value="Buys" style="text;html=1;align=center;verticalAlign=middle;whiteSpace=wrap;rounded=0;" parent="1" vertex="1">
          <mxGeometry x="1230" y="-565" width="60" height="30" as="geometry" />
        </mxCell>
        <mxCell id="l5c5falu1orTu4ODNzKj-70" value="" style="ellipse;whiteSpace=wrap;html=1;" parent="1" vertex="1">
          <mxGeometry x="395" y="-48.75" width="80" height="50" as="geometry" />
        </mxCell>
        <mxCell id="l5c5falu1orTu4ODNzKj-71" value="D_id" style="text;html=1;align=center;verticalAlign=middle;whiteSpace=wrap;rounded=0;" parent="1" vertex="1">
          <mxGeometry x="405" y="-38.75" width="60" height="30" as="geometry" />
        </mxCell>
        <mxCell id="l5c5falu1orTu4ODNzKj-72" value="" style="ellipse;whiteSpace=wrap;html=1;" parent="1" vertex="1">
          <mxGeometry x="37.5" y="-33.75" width="80" height="50" as="geometry" />
        </mxCell>
        <mxCell id="l5c5falu1orTu4ODNzKj-73" value="name" style="text;html=1;align=center;verticalAlign=middle;whiteSpace=wrap;rounded=0;" parent="1" vertex="1">
          <mxGeometry x="47.5" y="-23.75" width="60" height="30" as="geometry" />
        </mxCell>
        <mxCell id="l5c5falu1orTu4ODNzKj-74" value="" style="ellipse;whiteSpace=wrap;html=1;" parent="1" vertex="1">
          <mxGeometry x="382.5" y="20" width="80" height="50" as="geometry" />
        </mxCell>
        <mxCell id="l5c5falu1orTu4ODNzKj-75" value="specialization" style="text;html=1;align=center;verticalAlign=middle;whiteSpace=wrap;rounded=0;" parent="1" vertex="1">
          <mxGeometry x="392.5" y="30" width="60" height="30" as="geometry" />
        </mxCell>
        <mxCell id="l5c5falu1orTu4ODNzKj-76" value="" style="ellipse;whiteSpace=wrap;html=1;" parent="1" vertex="1">
          <mxGeometry x="302.5" y="-118.75" width="80" height="50" as="geometry" />
        </mxCell>
        <mxCell id="l5c5falu1orTu4ODNzKj-77" value="availability" style="text;html=1;align=center;verticalAlign=middle;whiteSpace=wrap;rounded=0;" parent="1" vertex="1">
          <mxGeometry x="312.5" y="-108.75" width="60" height="30" as="geometry" />
        </mxCell>
        <mxCell id="l5c5falu1orTu4ODNzKj-78" value="" style="ellipse;whiteSpace=wrap;html=1;" parent="1" vertex="1">
          <mxGeometry x="177.5" y="-128.75" width="80" height="50" as="geometry" />
        </mxCell>
        <mxCell id="l5c5falu1orTu4ODNzKj-79" value="email-id" style="text;html=1;align=center;verticalAlign=middle;whiteSpace=wrap;rounded=0;" parent="1" vertex="1">
          <mxGeometry x="187.5" y="-118.75" width="60" height="30" as="geometry" />
        </mxCell>
        <mxCell id="l5c5falu1orTu4ODNzKj-80" value="" style="ellipse;whiteSpace=wrap;html=1;" parent="1" vertex="1">
          <mxGeometry x="97.5" y="-88.75" width="80" height="50" as="geometry" />
        </mxCell>
        <mxCell id="l5c5falu1orTu4ODNzKj-81" value="phone number" style="text;html=1;align=center;verticalAlign=middle;whiteSpace=wrap;rounded=0;" parent="1" vertex="1">
          <mxGeometry x="107.5" y="-78.75" width="60" height="30" as="geometry" />
        </mxCell>
        <mxCell id="l5c5falu1orTu4ODNzKj-88" value="" style="ellipse;whiteSpace=wrap;html=1;" parent="1" vertex="1">
          <mxGeometry x="955" y="56.25" width="80" height="50" as="geometry" />
        </mxCell>
        <mxCell id="l5c5falu1orTu4ODNzKj-89" value="availability" style="text;html=1;align=center;verticalAlign=middle;whiteSpace=wrap;rounded=0;" parent="1" vertex="1">
          <mxGeometry x="965" y="66.25" width="60" height="30" as="geometry" />
        </mxCell>
        <mxCell id="l5c5falu1orTu4ODNzKj-90" value="" style="ellipse;whiteSpace=wrap;html=1;" parent="1" vertex="1">
          <mxGeometry x="895" y="166.25" width="80" height="50" as="geometry" />
        </mxCell>
        <mxCell id="l5c5falu1orTu4ODNzKj-91" value="email-id" style="text;html=1;align=center;verticalAlign=middle;whiteSpace=wrap;rounded=0;" parent="1" vertex="1">
          <mxGeometry x="905" y="176.25" width="60" height="30" as="geometry" />
        </mxCell>
        <mxCell id="l5c5falu1orTu4ODNzKj-96" value="" style="ellipse;whiteSpace=wrap;html=1;" parent="1" vertex="1">
          <mxGeometry x="775" y="196.25" width="80" height="50" as="geometry" />
        </mxCell>
        <mxCell id="l5c5falu1orTu4ODNzKj-97" value="N_id" style="text;html=1;align=center;verticalAlign=middle;whiteSpace=wrap;rounded=0;" parent="1" vertex="1">
          <mxGeometry x="785" y="206.25" width="60" height="30" as="geometry" />
        </mxCell>
        <mxCell id="l5c5falu1orTu4ODNzKj-98" value="" style="ellipse;whiteSpace=wrap;html=1;" parent="1" vertex="1">
          <mxGeometry x="660" y="196.25" width="80" height="50" as="geometry" />
        </mxCell>
        <mxCell id="l5c5falu1orTu4ODNzKj-99" value="name" style="text;html=1;align=center;verticalAlign=middle;whiteSpace=wrap;rounded=0;" parent="1" vertex="1">
          <mxGeometry x="670" y="206.25" width="60" height="30" as="geometry" />
        </mxCell>
        <mxCell id="l5c5falu1orTu4ODNzKj-106" value="" style="ellipse;whiteSpace=wrap;html=1;" parent="1" vertex="1">
          <mxGeometry x="570" y="26.25" width="80" height="50" as="geometry" />
        </mxCell>
        <mxCell id="l5c5falu1orTu4ODNzKj-107" value="specialization" style="text;html=1;align=center;verticalAlign=middle;whiteSpace=wrap;rounded=0;" parent="1" vertex="1">
          <mxGeometry x="580" y="36.25" width="60" height="30" as="geometry" />
        </mxCell>
        <mxCell id="l5c5falu1orTu4ODNzKj-110" value="" style="ellipse;whiteSpace=wrap;html=1;" parent="1" vertex="1">
          <mxGeometry x="660" y="-23.75" width="80" height="50" as="geometry" />
        </mxCell>
        <mxCell id="l5c5falu1orTu4ODNzKj-111" value="phone number" style="text;html=1;align=center;verticalAlign=middle;whiteSpace=wrap;rounded=0;" parent="1" vertex="1">
          <mxGeometry x="670" y="-13.75" width="60" height="30" as="geometry" />
        </mxCell>
        <mxCell id="l5c5falu1orTu4ODNzKj-112" value="" style="endArrow=none;html=1;rounded=0;exitX=1;exitY=0.5;exitDx=0;exitDy=0;" parent="1" source="l5c5falu1orTu4ODNzKj-110" edge="1">
          <mxGeometry width="50" height="50" relative="1" as="geometry">
            <mxPoint x="705" y="131.25" as="sourcePoint" />
            <mxPoint x="755" y="81.25" as="targetPoint" />
          </mxGeometry>
        </mxCell>
        <mxCell id="l5c5falu1orTu4ODNzKj-113" value="" style="endArrow=none;html=1;rounded=0;exitX=0.961;exitY=0.291;exitDx=0;exitDy=0;exitPerimeter=0;entryX=0;entryY=0.5;entryDx=0;entryDy=0;" parent="1" source="l5c5falu1orTu4ODNzKj-106" target="l5c5falu1orTu4ODNzKj-3" edge="1">
          <mxGeometry width="50" height="50" relative="1" as="geometry">
            <mxPoint x="625" y="86.25" as="sourcePoint" />
            <mxPoint x="755" y="86.25" as="targetPoint" />
          </mxGeometry>
        </mxCell>
        <mxCell id="l5c5falu1orTu4ODNzKj-114" value="" style="endArrow=none;html=1;rounded=0;exitX=0.5;exitY=0;exitDx=0;exitDy=0;entryX=0.5;entryY=1;entryDx=0;entryDy=0;" parent="1" source="l5c5falu1orTu4ODNzKj-98" target="l5c5falu1orTu4ODNzKj-3" edge="1">
          <mxGeometry width="50" height="50" relative="1" as="geometry">
            <mxPoint x="695" y="191.25" as="sourcePoint" />
            <mxPoint x="808" y="111.25" as="targetPoint" />
          </mxGeometry>
        </mxCell>
        <mxCell id="l5c5falu1orTu4ODNzKj-115" value="" style="endArrow=none;html=1;rounded=0;exitX=0.5;exitY=0;exitDx=0;exitDy=0;entryX=0;entryY=0.5;entryDx=0;entryDy=0;" parent="1" source="l5c5falu1orTu4ODNzKj-96" edge="1">
          <mxGeometry width="50" height="50" relative="1" as="geometry">
            <mxPoint x="710" y="196.25" as="sourcePoint" />
            <mxPoint x="818" y="111.25" as="targetPoint" />
            <Array as="points">
              <mxPoint x="815" y="111.25" />
            </Array>
          </mxGeometry>
        </mxCell>
        <mxCell id="l5c5falu1orTu4ODNzKj-116" value="" style="endArrow=none;html=1;rounded=0;exitX=0.5;exitY=0;exitDx=0;exitDy=0;entryX=0.005;entryY=0.597;entryDx=0;entryDy=0;entryPerimeter=0;" parent="1" target="l5c5falu1orTu4ODNzKj-88" edge="1">
          <mxGeometry width="50" height="50" relative="1" as="geometry">
            <mxPoint x="875" y="86.25" as="sourcePoint" />
            <mxPoint x="990" y="1.25" as="targetPoint" />
          </mxGeometry>
        </mxCell>
        <mxCell id="l5c5falu1orTu4ODNzKj-117" value="" style="endArrow=none;html=1;rounded=0;exitX=0.5;exitY=1;exitDx=0;exitDy=0;entryX=0.005;entryY=0.597;entryDx=0;entryDy=0;entryPerimeter=0;" parent="1" source="l5c5falu1orTu4ODNzKj-3" edge="1">
          <mxGeometry width="50" height="50" relative="1" as="geometry">
            <mxPoint x="855" y="166.01999999999998" as="sourcePoint" />
            <mxPoint x="935" y="166.01999999999998" as="targetPoint" />
          </mxGeometry>
        </mxCell>
        <mxCell id="l5c5falu1orTu4ODNzKj-118" value="" style="endArrow=none;html=1;rounded=0;exitX=0.994;exitY=0.405;exitDx=0;exitDy=0;exitPerimeter=0;entryX=-0.001;entryY=0.574;entryDx=0;entryDy=0;entryPerimeter=0;" parent="1" source="l5c5falu1orTu4ODNzKj-72" target="l5c5falu1orTu4ODNzKj-1" edge="1">
          <mxGeometry width="50" height="50" relative="1" as="geometry">
            <mxPoint x="177.5" y="46.25" as="sourcePoint" />
            <mxPoint x="227.5" y="-3.75" as="targetPoint" />
          </mxGeometry>
        </mxCell>
        <mxCell id="l5c5falu1orTu4ODNzKj-120" value="" style="endArrow=none;html=1;rounded=0;exitX=0.466;exitY=1.003;exitDx=0;exitDy=0;exitPerimeter=0;entryX=-0.002;entryY=0.568;entryDx=0;entryDy=0;entryPerimeter=0;" parent="1" source="l5c5falu1orTu4ODNzKj-80" target="l5c5falu1orTu4ODNzKj-1" edge="1">
          <mxGeometry width="50" height="50" relative="1" as="geometry">
            <mxPoint x="132.5" y="-37.75" as="sourcePoint" />
            <mxPoint x="242.5" y="-38.75" as="targetPoint" />
          </mxGeometry>
        </mxCell>
        <mxCell id="l5c5falu1orTu4ODNzKj-121" value="" style="endArrow=none;html=1;rounded=0;exitX=1;exitY=0.5;exitDx=0;exitDy=0;" parent="1" edge="1" source="l5c5falu1orTu4ODNzKj-1">
          <mxGeometry width="50" height="50" relative="1" as="geometry">
            <mxPoint x="382.4999999999998" y="-5.349999999999909" as="sourcePoint" />
            <mxPoint x="400" y="-10" as="targetPoint" />
          </mxGeometry>
        </mxCell>
        <mxCell id="l5c5falu1orTu4ODNzKj-122" value="" style="endArrow=none;html=1;rounded=0;entryX=1.004;entryY=0.522;entryDx=0;entryDy=0;entryPerimeter=0;" parent="1" target="l5c5falu1orTu4ODNzKj-1" edge="1">
          <mxGeometry width="50" height="50" relative="1" as="geometry">
            <mxPoint x="390" y="30" as="sourcePoint" />
            <mxPoint x="361.6600000000001" y="1.2499999999999432" as="targetPoint" />
          </mxGeometry>
        </mxCell>
        <mxCell id="l5c5falu1orTu4ODNzKj-123" value="" style="endArrow=none;html=1;rounded=0;exitX=0.466;exitY=1.003;exitDx=0;exitDy=0;exitPerimeter=0;entryX=-0.007;entryY=0.576;entryDx=0;entryDy=0;entryPerimeter=0;" parent="1" target="l5c5falu1orTu4ODNzKj-1" edge="1">
          <mxGeometry width="50" height="50" relative="1" as="geometry">
            <mxPoint x="219.5" y="-78.75" as="sourcePoint" />
            <mxPoint x="312.5" y="-34.75" as="targetPoint" />
          </mxGeometry>
        </mxCell>
        <mxCell id="l5c5falu1orTu4ODNzKj-124" value="" style="endArrow=none;html=1;rounded=0;exitX=0.712;exitY=-0.007;exitDx=0;exitDy=0;exitPerimeter=0;" parent="1" source="l5c5falu1orTu4ODNzKj-1" edge="1">
          <mxGeometry width="50" height="50" relative="1" as="geometry">
            <mxPoint x="287.5" y="-18.75" as="sourcePoint" />
            <mxPoint x="337.5" y="-68.75" as="targetPoint" />
          </mxGeometry>
        </mxCell>
        <mxCell id="l5c5falu1orTu4ODNzKj-128" value="" style="ellipse;whiteSpace=wrap;html=1;" parent="1" vertex="1">
          <mxGeometry x="-260" y="31.25" width="80" height="50" as="geometry" />
        </mxCell>
        <mxCell id="l5c5falu1orTu4ODNzKj-129" value="MR_id" style="text;html=1;align=center;verticalAlign=middle;whiteSpace=wrap;rounded=0;" parent="1" vertex="1">
          <mxGeometry x="-250" y="41.25" width="60" height="30" as="geometry" />
        </mxCell>
        <mxCell id="l5c5falu1orTu4ODNzKj-130" value="" style="ellipse;whiteSpace=wrap;html=1;" parent="1" vertex="1">
          <mxGeometry x="-145" y="31.25" width="80" height="50" as="geometry" />
        </mxCell>
        <mxCell id="l5c5falu1orTu4ODNzKj-131" value="file system" style="text;html=1;align=center;verticalAlign=middle;whiteSpace=wrap;rounded=0;" parent="1" vertex="1">
          <mxGeometry x="-135" y="41.25" width="60" height="30" as="geometry" />
        </mxCell>
        <mxCell id="l5c5falu1orTu4ODNzKj-132" value="" style="endArrow=none;html=1;rounded=0;entryX=0.5;entryY=1;entryDx=0;entryDy=0;" parent="1" target="l5c5falu1orTu4ODNzKj-128" edge="1">
          <mxGeometry width="50" height="50" relative="1" as="geometry">
            <mxPoint x="-180" y="121.25" as="sourcePoint" />
            <mxPoint x="-130" y="71.25" as="targetPoint" />
          </mxGeometry>
        </mxCell>
        <mxCell id="l5c5falu1orTu4ODNzKj-133" value="" style="endArrow=none;html=1;rounded=0;entryX=0.381;entryY=0.991;entryDx=0;entryDy=0;exitX=0.413;exitY=-0.005;exitDx=0;exitDy=0;exitPerimeter=0;entryPerimeter=0;" parent="1" source="l5c5falu1orTu4ODNzKj-7" target="l5c5falu1orTu4ODNzKj-130" edge="1">
          <mxGeometry width="50" height="50" relative="1" as="geometry">
            <mxPoint x="-75" y="121.25" as="sourcePoint" />
            <mxPoint x="-115" y="81.25" as="targetPoint" />
          </mxGeometry>
        </mxCell>
        <mxCell id="l5c5falu1orTu4ODNzKj-134" value="" style="ellipse;whiteSpace=wrap;html=1;" parent="1" vertex="1">
          <mxGeometry x="107.5" y="-890" width="80" height="50" as="geometry" />
        </mxCell>
        <mxCell id="l5c5falu1orTu4ODNzKj-135" value="P_id" style="text;html=1;align=center;verticalAlign=middle;whiteSpace=wrap;rounded=0;" parent="1" vertex="1">
          <mxGeometry x="117.5" y="-880" width="60" height="30" as="geometry" />
        </mxCell>
        <mxCell id="l5c5falu1orTu4ODNzKj-136" value="" style="ellipse;whiteSpace=wrap;html=1;" parent="1" vertex="1">
          <mxGeometry x="307.5" y="-910" width="80" height="50" as="geometry" />
        </mxCell>
        <mxCell id="l5c5falu1orTu4ODNzKj-137" value="name" style="text;html=1;align=center;verticalAlign=middle;whiteSpace=wrap;rounded=0;" parent="1" vertex="1">
          <mxGeometry x="317.5" y="-900" width="60" height="30" as="geometry" />
        </mxCell>
        <mxCell id="l5c5falu1orTu4ODNzKj-138" value="" style="ellipse;whiteSpace=wrap;html=1;" parent="1" vertex="1">
          <mxGeometry x="107.5" y="-820" width="80" height="50" as="geometry" />
        </mxCell>
        <mxCell id="l5c5falu1orTu4ODNzKj-139" value="email" style="text;html=1;align=center;verticalAlign=middle;whiteSpace=wrap;rounded=0;" parent="1" vertex="1">
          <mxGeometry x="117.5" y="-810" width="60" height="30" as="geometry" />
        </mxCell>
        <mxCell id="l5c5falu1orTu4ODNzKj-140" value="" style="ellipse;whiteSpace=wrap;html=1;" parent="1" vertex="1">
          <mxGeometry x="372.5" y="-850" width="80" height="50" as="geometry" />
        </mxCell>
        <mxCell id="l5c5falu1orTu4ODNzKj-141" value="phone number" style="text;html=1;align=center;verticalAlign=middle;whiteSpace=wrap;rounded=0;" parent="1" vertex="1">
          <mxGeometry x="382.5" y="-840" width="60" height="30" as="geometry" />
        </mxCell>
        <mxCell id="l5c5falu1orTu4ODNzKj-142" value="" style="ellipse;whiteSpace=wrap;html=1;" parent="1" vertex="1">
          <mxGeometry x="207.5" y="-910" width="80" height="50" as="geometry" />
        </mxCell>
        <mxCell id="l5c5falu1orTu4ODNzKj-143" value="DOB" style="text;html=1;align=center;verticalAlign=middle;whiteSpace=wrap;rounded=0;" parent="1" vertex="1">
          <mxGeometry x="217.5" y="-900" width="60" height="30" as="geometry" />
        </mxCell>
        <mxCell id="l5c5falu1orTu4ODNzKj-144" value="" style="ellipse;whiteSpace=wrap;html=1;" parent="1" vertex="1">
          <mxGeometry x="410" y="-795" width="80" height="50" as="geometry" />
        </mxCell>
        <mxCell id="l5c5falu1orTu4ODNzKj-145" value="gender" style="text;html=1;align=center;verticalAlign=middle;whiteSpace=wrap;rounded=0;" parent="1" vertex="1">
          <mxGeometry x="420" y="-785" width="60" height="30" as="geometry" />
        </mxCell>
        <mxCell id="l5c5falu1orTu4ODNzKj-146" value="" style="ellipse;whiteSpace=wrap;html=1;" parent="1" vertex="1">
          <mxGeometry x="895" y="-38.75" width="80" height="50" as="geometry" />
        </mxCell>
        <mxCell id="l5c5falu1orTu4ODNzKj-147" value="service type" style="text;html=1;align=center;verticalAlign=middle;whiteSpace=wrap;rounded=0;" parent="1" vertex="1">
          <mxGeometry x="905" y="-28.75" width="60" height="30" as="geometry" />
        </mxCell>
        <mxCell id="l5c5falu1orTu4ODNzKj-148" value="" style="endArrow=none;html=1;rounded=0;entryX=0.348;entryY=0.98;entryDx=0;entryDy=0;entryPerimeter=0;exitX=0.75;exitY=0;exitDx=0;exitDy=0;" parent="1" source="l5c5falu1orTu4ODNzKj-3" target="l5c5falu1orTu4ODNzKj-146" edge="1">
          <mxGeometry width="50" height="50" relative="1" as="geometry">
            <mxPoint x="845" y="47.25" as="sourcePoint" />
            <mxPoint x="925" y="31.25" as="targetPoint" />
          </mxGeometry>
        </mxCell>
        <mxCell id="l5c5falu1orTu4ODNzKj-149" value="" style="ellipse;whiteSpace=wrap;html=1;" parent="1" vertex="1">
          <mxGeometry x="290" y="413.75" width="80" height="50" as="geometry" />
        </mxCell>
        <mxCell id="l5c5falu1orTu4ODNzKj-150" value="Date" style="text;html=1;align=center;verticalAlign=middle;whiteSpace=wrap;rounded=0;" parent="1" vertex="1">
          <mxGeometry x="300" y="423.75" width="60" height="30" as="geometry" />
        </mxCell>
        <mxCell id="l5c5falu1orTu4ODNzKj-151" value="" style="ellipse;whiteSpace=wrap;html=1;" parent="1" vertex="1">
          <mxGeometry x="185" y="413.75" width="80" height="50" as="geometry" />
        </mxCell>
        <mxCell id="l5c5falu1orTu4ODNzKj-152" value="Pr_id" style="text;html=1;align=center;verticalAlign=middle;whiteSpace=wrap;rounded=0;" parent="1" vertex="1">
          <mxGeometry x="195" y="423.75" width="60" height="30" as="geometry" />
        </mxCell>
        <mxCell id="l5c5falu1orTu4ODNzKj-153" value="" style="ellipse;whiteSpace=wrap;html=1;" parent="1" vertex="1">
          <mxGeometry x="197.5" y="-540" width="80" height="50" as="geometry" />
        </mxCell>
        <mxCell id="l5c5falu1orTu4ODNzKj-154" value="A_id" style="text;html=1;align=center;verticalAlign=middle;whiteSpace=wrap;rounded=0;" parent="1" vertex="1">
          <mxGeometry x="207.5" y="-530" width="60" height="30" as="geometry" />
        </mxCell>
        <mxCell id="l5c5falu1orTu4ODNzKj-155" value="" style="ellipse;whiteSpace=wrap;html=1;" parent="1" vertex="1">
          <mxGeometry x="292.5" y="-540" width="80" height="50" as="geometry" />
        </mxCell>
        <mxCell id="l5c5falu1orTu4ODNzKj-156" value="Date" style="text;html=1;align=center;verticalAlign=middle;whiteSpace=wrap;rounded=0;" parent="1" vertex="1">
          <mxGeometry x="302.5" y="-530" width="60" height="30" as="geometry" />
        </mxCell>
        <mxCell id="l5c5falu1orTu4ODNzKj-157" value="" style="ellipse;whiteSpace=wrap;html=1;" parent="1" vertex="1">
          <mxGeometry x="1115" y="-138.75" width="80" height="50" as="geometry" />
        </mxCell>
        <mxCell id="l5c5falu1orTu4ODNzKj-158" value="M_id" style="text;html=1;align=center;verticalAlign=middle;whiteSpace=wrap;rounded=0;" parent="1" vertex="1">
          <mxGeometry x="1125" y="-128.75" width="60" height="30" as="geometry" />
        </mxCell>
        <mxCell id="l5c5falu1orTu4ODNzKj-159" value="" style="ellipse;whiteSpace=wrap;html=1;" parent="1" vertex="1">
          <mxGeometry x="1385" y="-193.75" width="80" height="50" as="geometry" />
        </mxCell>
        <mxCell id="l5c5falu1orTu4ODNzKj-160" value="M_name" style="text;html=1;align=center;verticalAlign=middle;whiteSpace=wrap;rounded=0;" parent="1" vertex="1">
          <mxGeometry x="1395" y="-183.75" width="60" height="30" as="geometry" />
        </mxCell>
        <mxCell id="l5c5falu1orTu4ODNzKj-161" value="" style="ellipse;whiteSpace=wrap;html=1;" parent="1" vertex="1">
          <mxGeometry x="1320" y="-138.75" width="80" height="50" as="geometry" />
        </mxCell>
        <mxCell id="l5c5falu1orTu4ODNzKj-162" value="Price" style="text;html=1;align=center;verticalAlign=middle;whiteSpace=wrap;rounded=0;" parent="1" vertex="1">
          <mxGeometry x="1330" y="-128.75" width="60" height="30" as="geometry" />
        </mxCell>
        <mxCell id="l5c5falu1orTu4ODNzKj-163" value="" style="ellipse;whiteSpace=wrap;html=1;" parent="1" vertex="1">
          <mxGeometry x="930" y="630" width="80" height="50" as="geometry" />
        </mxCell>
        <mxCell id="l5c5falu1orTu4ODNzKj-164" value="P_id" style="text;html=1;align=center;verticalAlign=middle;whiteSpace=wrap;rounded=0;" parent="1" vertex="1">
          <mxGeometry x="940" y="640" width="60" height="30" as="geometry" />
        </mxCell>
        <mxCell id="l5c5falu1orTu4ODNzKj-165" value="" style="ellipse;whiteSpace=wrap;html=1;" parent="1" vertex="1">
          <mxGeometry x="850" y="650" width="80" height="50" as="geometry" />
        </mxCell>
        <mxCell id="l5c5falu1orTu4ODNzKj-166" value="name" style="text;html=1;align=center;verticalAlign=middle;whiteSpace=wrap;rounded=0;" parent="1" vertex="1">
          <mxGeometry x="860" y="660" width="60" height="30" as="geometry" />
        </mxCell>
        <mxCell id="l5c5falu1orTu4ODNzKj-167" value="" style="ellipse;whiteSpace=wrap;html=1;" parent="1" vertex="1">
          <mxGeometry x="735" y="660" width="80" height="50" as="geometry" />
        </mxCell>
        <mxCell id="l5c5falu1orTu4ODNzKj-168" value="email - address" style="text;html=1;align=center;verticalAlign=middle;whiteSpace=wrap;rounded=0;" parent="1" vertex="1">
          <mxGeometry x="745" y="670" width="60" height="30" as="geometry" />
        </mxCell>
        <mxCell id="l5c5falu1orTu4ODNzKj-173" value="" style="ellipse;whiteSpace=wrap;html=1;" parent="1" vertex="1">
          <mxGeometry x="670" y="600" width="80" height="50" as="geometry" />
        </mxCell>
        <mxCell id="l5c5falu1orTu4ODNzKj-174" value="Address" style="text;html=1;align=center;verticalAlign=middle;whiteSpace=wrap;rounded=0;" parent="1" vertex="1">
          <mxGeometry x="680" y="610" width="60" height="30" as="geometry" />
        </mxCell>
        <mxCell id="l5c5falu1orTu4ODNzKj-175" value="" style="endArrow=none;html=1;rounded=0;exitX=0.853;exitY=-0.004;exitDx=0;exitDy=0;exitPerimeter=0;" parent="1" edge="1" source="l5c5falu1orTu4ODNzKj-13">
          <mxGeometry width="50" height="50" relative="1" as="geometry">
            <mxPoint x="292.5" y="-455" as="sourcePoint" />
            <mxPoint x="332.5" y="-490" as="targetPoint" />
          </mxGeometry>
        </mxCell>
        <mxCell id="l5c5falu1orTu4ODNzKj-176" value="" style="endArrow=none;html=1;rounded=0;exitX=0.415;exitY=-0.002;exitDx=0;exitDy=0;exitPerimeter=0;" parent="1" edge="1" source="l5c5falu1orTu4ODNzKj-13">
          <mxGeometry width="50" height="50" relative="1" as="geometry">
            <mxPoint x="292.5" y="-455" as="sourcePoint" />
            <mxPoint x="242.5" y="-490" as="targetPoint" />
          </mxGeometry>
        </mxCell>
        <mxCell id="l5c5falu1orTu4ODNzKj-177" value="" style="endArrow=none;html=1;rounded=0;entryX=0.623;entryY=0.989;entryDx=0;entryDy=0;entryPerimeter=0;exitX=0.425;exitY=-0.015;exitDx=0;exitDy=0;exitPerimeter=0;" parent="1" source="l5c5falu1orTu4ODNzKj-149" edge="1" target="l5c5falu1orTu4ODNzKj-18">
          <mxGeometry width="50" height="50" relative="1" as="geometry">
            <mxPoint x="322.5" y="411.25" as="sourcePoint" />
            <mxPoint x="220" y="338.75" as="targetPoint" />
          </mxGeometry>
        </mxCell>
        <mxCell id="l5c5falu1orTu4ODNzKj-178" value="" style="endArrow=none;html=1;rounded=0;exitX=0.694;exitY=0.017;exitDx=0;exitDy=0;exitPerimeter=0;entryX=-0.004;entryY=0.483;entryDx=0;entryDy=0;entryPerimeter=0;" parent="1" edge="1" source="l5c5falu1orTu4ODNzKj-151">
          <mxGeometry width="50" height="50" relative="1" as="geometry">
            <mxPoint x="247.48" y="389.77" as="sourcePoint" />
            <mxPoint x="275" y="370" as="targetPoint" />
          </mxGeometry>
        </mxCell>
        <mxCell id="l5c5falu1orTu4ODNzKj-179" value="" style="endArrow=none;html=1;rounded=0;exitX=0.935;exitY=0.244;exitDx=0;exitDy=0;exitPerimeter=0;" parent="1" edge="1">
          <mxGeometry width="50" height="50" relative="1" as="geometry">
            <mxPoint x="744.8" y="612.2000000000003" as="sourcePoint" />
            <mxPoint x="780" y="590" as="targetPoint" />
          </mxGeometry>
        </mxCell>
        <mxCell id="l5c5falu1orTu4ODNzKj-180" value="" style="endArrow=none;html=1;rounded=0;exitX=0.931;exitY=0.222;exitDx=0;exitDy=0;exitPerimeter=0;entryX=0.055;entryY=1.003;entryDx=0;entryDy=0;entryPerimeter=0;" parent="1" target="l5c5falu1orTu4ODNzKj-9" edge="1">
          <mxGeometry width="50" height="50" relative="1" as="geometry">
            <mxPoint x="772" y="660" as="sourcePoint" />
            <mxPoint x="808" y="639" as="targetPoint" />
          </mxGeometry>
        </mxCell>
        <mxCell id="l5c5falu1orTu4ODNzKj-181" value="" style="endArrow=none;html=1;rounded=0;exitX=0.931;exitY=0.222;exitDx=0;exitDy=0;exitPerimeter=0;entryX=0.796;entryY=1.002;entryDx=0;entryDy=0;entryPerimeter=0;" parent="1" target="l5c5falu1orTu4ODNzKj-9" edge="1">
          <mxGeometry width="50" height="50" relative="1" as="geometry">
            <mxPoint x="890" y="650" as="sourcePoint" />
            <mxPoint x="906" y="621" as="targetPoint" />
          </mxGeometry>
        </mxCell>
        <mxCell id="l5c5falu1orTu4ODNzKj-182" value="" style="endArrow=none;html=1;rounded=0;exitX=0.931;exitY=0.222;exitDx=0;exitDy=0;exitPerimeter=0;entryX=1;entryY=0.807;entryDx=0;entryDy=0;entryPerimeter=0;" parent="1" target="l5c5falu1orTu4ODNzKj-9" edge="1">
          <mxGeometry width="50" height="50" relative="1" as="geometry">
            <mxPoint x="967" y="630" as="sourcePoint" />
            <mxPoint x="950" y="611" as="targetPoint" />
          </mxGeometry>
        </mxCell>
        <mxCell id="l5c5falu1orTu4ODNzKj-183" value="" style="endArrow=none;html=1;rounded=0;entryX=0;entryY=1;entryDx=0;entryDy=0;" parent="1" target="l5c5falu1orTu4ODNzKj-11" edge="1">
          <mxGeometry width="50" height="50" relative="1" as="geometry">
            <mxPoint x="1160" y="-138.75" as="sourcePoint" />
            <mxPoint x="1210" y="-188.75" as="targetPoint" />
          </mxGeometry>
        </mxCell>
        <mxCell id="l5c5falu1orTu4ODNzKj-184" value="" style="endArrow=none;html=1;rounded=0;entryX=1.012;entryY=0.66;entryDx=0;entryDy=0;entryPerimeter=0;exitX=0;exitY=0.5;exitDx=0;exitDy=0;" parent="1" target="l5c5falu1orTu4ODNzKj-11" edge="1" source="l5c5falu1orTu4ODNzKj-159">
          <mxGeometry width="50" height="50" relative="1" as="geometry">
            <mxPoint x="1420" y="-193.75" as="sourcePoint" />
            <mxPoint x="1407.52" y="-238.45000000000005" as="targetPoint" />
          </mxGeometry>
        </mxCell>
        <mxCell id="l5c5falu1orTu4ODNzKj-185" value="" style="endArrow=none;html=1;rounded=0;entryX=1;entryY=1;entryDx=0;entryDy=0;" parent="1" target="l5c5falu1orTu4ODNzKj-11" edge="1">
          <mxGeometry width="50" height="50" relative="1" as="geometry">
            <mxPoint x="1365" y="-138.75" as="sourcePoint" />
            <mxPoint x="1353" y="-183.75" as="targetPoint" />
          </mxGeometry>
        </mxCell>
        <mxCell id="l5c5falu1orTu4ODNzKj-187" value="" style="endArrow=none;html=1;rounded=0;entryX=0.755;entryY=0.938;entryDx=0;entryDy=0;entryPerimeter=0;" parent="1" target="l5c5falu1orTu4ODNzKj-138" edge="1">
          <mxGeometry width="50" height="50" relative="1" as="geometry">
            <mxPoint x="227.5" y="-780" as="sourcePoint" />
            <mxPoint x="277.5" y="-830" as="targetPoint" />
          </mxGeometry>
        </mxCell>
        <mxCell id="l5c5falu1orTu4ODNzKj-188" value="" style="endArrow=none;html=1;rounded=0;entryX=0.755;entryY=0.938;entryDx=0;entryDy=0;entryPerimeter=0;exitX=-0.002;exitY=0.331;exitDx=0;exitDy=0;exitPerimeter=0;" parent="1" source="l5c5falu1orTu4ODNzKj-5" edge="1">
          <mxGeometry width="50" height="50" relative="1" as="geometry">
            <mxPoint x="232.5" y="-852" as="sourcePoint" />
            <mxPoint x="172.5" y="-845" as="targetPoint" />
          </mxGeometry>
        </mxCell>
        <mxCell id="l5c5falu1orTu4ODNzKj-189" value="" style="endArrow=none;html=1;rounded=0;entryX=0.755;entryY=0.938;entryDx=0;entryDy=0;entryPerimeter=0;exitX=0.194;exitY=-0.001;exitDx=0;exitDy=0;exitPerimeter=0;" parent="1" source="l5c5falu1orTu4ODNzKj-5" edge="1">
          <mxGeometry width="50" height="50" relative="1" as="geometry">
            <mxPoint x="305" y="-795" as="sourcePoint" />
            <mxPoint x="250" y="-860" as="targetPoint" />
          </mxGeometry>
        </mxCell>
        <mxCell id="l5c5falu1orTu4ODNzKj-190" value="" style="endArrow=none;html=1;rounded=0;entryX=0.374;entryY=0.989;entryDx=0;entryDy=0;entryPerimeter=0;exitX=0.916;exitY=-0.003;exitDx=0;exitDy=0;exitPerimeter=0;" parent="1" source="l5c5falu1orTu4ODNzKj-5" target="l5c5falu1orTu4ODNzKj-136" edge="1">
          <mxGeometry width="50" height="50" relative="1" as="geometry">
            <mxPoint x="338" y="-800" as="sourcePoint" />
            <mxPoint x="337.5" y="-860" as="targetPoint" />
          </mxGeometry>
        </mxCell>
        <mxCell id="l5c5falu1orTu4ODNzKj-191" value="" style="endArrow=none;html=1;rounded=0;entryX=0.374;entryY=0.989;entryDx=0;entryDy=0;entryPerimeter=0;exitX=1.003;exitY=0.188;exitDx=0;exitDy=0;exitPerimeter=0;" parent="1" source="l5c5falu1orTu4ODNzKj-5" edge="1">
          <mxGeometry width="50" height="50" relative="1" as="geometry">
            <mxPoint x="402.5" y="-740" as="sourcePoint" />
            <mxPoint x="402.5" y="-801" as="targetPoint" />
          </mxGeometry>
        </mxCell>
        <mxCell id="UjBy2W333mnucXlfp_4j-5" value="" style="rhombus;whiteSpace=wrap;html=1;" vertex="1" parent="1">
          <mxGeometry x="1210" y="310" width="100" height="95" as="geometry" />
        </mxCell>
        <mxCell id="UjBy2W333mnucXlfp_4j-6" value="Sells" style="text;html=1;align=center;verticalAlign=middle;whiteSpace=wrap;rounded=0;" vertex="1" parent="1">
          <mxGeometry x="1230" y="342.5" width="60" height="30" as="geometry" />
        </mxCell>
        <mxCell id="UjBy2W333mnucXlfp_4j-7" value="" style="rhombus;whiteSpace=wrap;html=1;" vertex="1" parent="1">
          <mxGeometry x="470" y="520" width="100" height="95" as="geometry" />
        </mxCell>
        <mxCell id="UjBy2W333mnucXlfp_4j-8" value="Access/&lt;div&gt;Retrieve&lt;/div&gt;" style="text;html=1;align=center;verticalAlign=middle;whiteSpace=wrap;rounded=0;" vertex="1" parent="1">
          <mxGeometry x="490" y="552.5" width="60" height="30" as="geometry" />
        </mxCell>
        <mxCell id="UjBy2W333mnucXlfp_4j-10" value="" style="rhombus;whiteSpace=wrap;html=1;" vertex="1" parent="1">
          <mxGeometry x="462.5" y="193.75" width="77.5" height="80" as="geometry" />
        </mxCell>
        <mxCell id="UjBy2W333mnucXlfp_4j-11" value="Provides" style="text;html=1;align=center;verticalAlign=middle;whiteSpace=wrap;rounded=0;" vertex="1" parent="1">
          <mxGeometry x="472.5" y="218.75" width="60" height="30" as="geometry" />
        </mxCell>
        <mxCell id="UjBy2W333mnucXlfp_4j-12" value="" style="rhombus;whiteSpace=wrap;html=1;" vertex="1" parent="1">
          <mxGeometry x="-30" y="193.75" width="100" height="95" as="geometry" />
        </mxCell>
        <mxCell id="UjBy2W333mnucXlfp_4j-13" value="Is Stored" style="text;html=1;align=center;verticalAlign=middle;whiteSpace=wrap;rounded=0;" vertex="1" parent="1">
          <mxGeometry x="-10" y="226.25" width="60" height="30" as="geometry" />
        </mxCell>
        <mxCell id="UjBy2W333mnucXlfp_4j-14" value="" style="endArrow=none;html=1;rounded=0;exitX=0.5;exitY=0;exitDx=0;exitDy=0;" edge="1" parent="1" source="l5c5falu1orTu4ODNzKj-15">
          <mxGeometry width="50" height="50" relative="1" as="geometry">
            <mxPoint x="237.5" y="-690" as="sourcePoint" />
            <mxPoint x="287.5" y="-740" as="targetPoint" />
          </mxGeometry>
        </mxCell>
        <mxCell id="UjBy2W333mnucXlfp_4j-15" value="" style="endArrow=none;html=1;rounded=0;entryX=0.5;entryY=1;entryDx=0;entryDy=0;exitX=0.546;exitY=-0.001;exitDx=0;exitDy=0;exitPerimeter=0;" edge="1" parent="1" source="l5c5falu1orTu4ODNzKj-13" target="l5c5falu1orTu4ODNzKj-15">
          <mxGeometry width="50" height="50" relative="1" as="geometry">
            <mxPoint x="290.5" y="-455" as="sourcePoint" />
            <mxPoint x="290" y="-575" as="targetPoint" />
          </mxGeometry>
        </mxCell>
        <mxCell id="UjBy2W333mnucXlfp_4j-16" value="" style="endArrow=none;html=1;rounded=0;exitX=0.5;exitY=0;exitDx=0;exitDy=0;entryX=0.455;entryY=0.984;entryDx=0;entryDy=0;entryPerimeter=0;" edge="1" parent="1" source="l5c5falu1orTu4ODNzKj-25" target="l5c5falu1orTu4ODNzKj-13">
          <mxGeometry width="50" height="50" relative="1" as="geometry">
            <mxPoint x="282" y="-268" as="sourcePoint" />
            <mxPoint x="277.5" y="-395" as="targetPoint" />
          </mxGeometry>
        </mxCell>
        <mxCell id="UjBy2W333mnucXlfp_4j-17" value="" style="endArrow=none;html=1;rounded=0;exitX=0.5;exitY=0;exitDx=0;exitDy=0;entryX=1;entryY=1;entryDx=0;entryDy=0;" edge="1" parent="1" source="l5c5falu1orTu4ODNzKj-23" target="l5c5falu1orTu4ODNzKj-13">
          <mxGeometry width="50" height="50" relative="1" as="geometry">
            <mxPoint x="710.5" y="-198.75" as="sourcePoint" />
            <mxPoint x="709.5" y="-304.75" as="targetPoint" />
            <Array as="points">
              <mxPoint x="815" y="-395" />
            </Array>
          </mxGeometry>
        </mxCell>
        <mxCell id="UjBy2W333mnucXlfp_4j-18" value="" style="endArrow=none;html=1;rounded=0;exitX=0.425;exitY=-0.021;exitDx=0;exitDy=0;entryX=0.455;entryY=0.984;entryDx=0;entryDy=0;entryPerimeter=0;exitPerimeter=0;" edge="1" parent="1" source="l5c5falu1orTu4ODNzKj-1">
          <mxGeometry width="50" height="50" relative="1" as="geometry">
            <mxPoint x="278.5" y="-104" as="sourcePoint" />
            <mxPoint x="277.5" y="-210" as="targetPoint" />
          </mxGeometry>
        </mxCell>
        <mxCell id="UjBy2W333mnucXlfp_4j-19" value="" style="endArrow=none;html=1;rounded=0;exitX=0.5;exitY=0;exitDx=0;exitDy=0;entryX=0.5;entryY=1;entryDx=0;entryDy=0;" edge="1" parent="1" target="l5c5falu1orTu4ODNzKj-23">
          <mxGeometry width="50" height="50" relative="1" as="geometry">
            <mxPoint x="816" y="51.25" as="sourcePoint" />
            <mxPoint x="815" y="-54.75" as="targetPoint" />
          </mxGeometry>
        </mxCell>
        <mxCell id="UjBy2W333mnucXlfp_4j-21" value="" style="endArrow=none;html=1;rounded=0;entryX=1;entryY=1;entryDx=0;entryDy=0;exitX=0.5;exitY=0;exitDx=0;exitDy=0;" edge="1" parent="1" source="l5c5falu1orTu4ODNzKj-43" target="l5c5falu1orTu4ODNzKj-5">
          <mxGeometry width="50" height="50" relative="1" as="geometry">
            <mxPoint x="810" y="-520" as="sourcePoint" />
            <mxPoint x="406.5" y="-810" as="targetPoint" />
            <Array as="points">
              <mxPoint x="1260" y="-740" />
              <mxPoint x="850" y="-740" />
            </Array>
          </mxGeometry>
        </mxCell>
        <mxCell id="UjBy2W333mnucXlfp_4j-22" value="" style="endArrow=none;html=1;rounded=0;exitX=0.5;exitY=0;exitDx=0;exitDy=0;entryX=0.536;entryY=1.005;entryDx=0;entryDy=0;entryPerimeter=0;" edge="1" parent="1" source="UjBy2W333mnucXlfp_4j-5" target="l5c5falu1orTu4ODNzKj-11">
          <mxGeometry width="50" height="50" relative="1" as="geometry">
            <mxPoint x="1697" y="111.25" as="sourcePoint" />
            <mxPoint x="1290" y="-175" as="targetPoint" />
          </mxGeometry>
        </mxCell>
        <mxCell id="UjBy2W333mnucXlfp_4j-23" value="" style="endArrow=none;html=1;rounded=0;exitX=0.5;exitY=1;exitDx=0;exitDy=0;entryX=1;entryY=0;entryDx=0;entryDy=0;" edge="1" parent="1" source="UjBy2W333mnucXlfp_4j-5" target="l5c5falu1orTu4ODNzKj-9">
          <mxGeometry width="50" height="50" relative="1" as="geometry">
            <mxPoint x="1577" y="783.25" as="sourcePoint" />
            <mxPoint x="1170" y="497" as="targetPoint" />
            <Array as="points">
              <mxPoint x="1260" y="570" />
            </Array>
          </mxGeometry>
        </mxCell>
        <mxCell id="UjBy2W333mnucXlfp_4j-24" value="" style="endArrow=none;html=1;rounded=0;exitX=0.5;exitY=0;exitDx=0;exitDy=0;entryX=0.5;entryY=1;entryDx=0;entryDy=0;" edge="1" parent="1" source="l5c5falu1orTu4ODNzKj-33" target="l5c5falu1orTu4ODNzKj-1">
          <mxGeometry width="50" height="50" relative="1" as="geometry">
            <mxPoint x="685" y="317.5" as="sourcePoint" />
            <mxPoint x="278" y="31.25" as="targetPoint" />
          </mxGeometry>
        </mxCell>
        <mxCell id="UjBy2W333mnucXlfp_4j-26" value="" style="endArrow=none;html=1;rounded=0;exitX=0.5;exitY=0;exitDx=0;exitDy=0;entryX=1;entryY=0.5;entryDx=0;entryDy=0;" edge="1" parent="1" source="UjBy2W333mnucXlfp_4j-7">
          <mxGeometry width="50" height="50" relative="1" as="geometry">
            <mxPoint x="747" y="656.25" as="sourcePoint" />
            <mxPoint x="340" y="370" as="targetPoint" />
          </mxGeometry>
        </mxCell>
        <mxCell id="UjBy2W333mnucXlfp_4j-27" value="" style="endArrow=none;html=1;rounded=0;exitX=0;exitY=0;exitDx=0;exitDy=0;entryX=1;entryY=0.5;entryDx=0;entryDy=0;" edge="1" parent="1" source="l5c5falu1orTu4ODNzKj-9" target="UjBy2W333mnucXlfp_4j-7">
          <mxGeometry width="50" height="50" relative="1" as="geometry">
            <mxPoint x="755" y="544.75" as="sourcePoint" />
            <mxPoint x="595" y="453.75" as="targetPoint" />
          </mxGeometry>
        </mxCell>
        <mxCell id="UjBy2W333mnucXlfp_4j-28" value="" style="endArrow=none;html=1;rounded=0;entryX=0.5;entryY=1;entryDx=0;entryDy=0;" edge="1" parent="1">
          <mxGeometry width="50" height="50" relative="1" as="geometry">
            <mxPoint x="288" y="310" as="sourcePoint" />
            <mxPoint x="287.5" y="226.25" as="targetPoint" />
          </mxGeometry>
        </mxCell>
        <mxCell id="UjBy2W333mnucXlfp_4j-29" value="" style="endArrow=none;html=1;rounded=0;entryX=1;entryY=0.5;entryDx=0;entryDy=0;exitX=0;exitY=0.5;exitDx=0;exitDy=0;" edge="1" parent="1" source="l5c5falu1orTu4ODNzKj-18" target="UjBy2W333mnucXlfp_4j-12">
          <mxGeometry width="50" height="50" relative="1" as="geometry">
            <mxPoint x="220" y="343" as="sourcePoint" />
            <mxPoint x="62.5" y="251.5" as="targetPoint" />
          </mxGeometry>
        </mxCell>
        <mxCell id="UjBy2W333mnucXlfp_4j-30" value="" style="endArrow=none;html=1;rounded=0;exitX=0;exitY=0.5;exitDx=0;exitDy=0;entryX=1;entryY=1;entryDx=0;entryDy=0;" edge="1" parent="1" source="UjBy2W333mnucXlfp_4j-12" target="l5c5falu1orTu4ODNzKj-7">
          <mxGeometry width="50" height="50" relative="1" as="geometry">
            <mxPoint x="-20" y="323.75" as="sourcePoint" />
            <mxPoint x="-252.5" y="321.25" as="targetPoint" />
          </mxGeometry>
        </mxCell>
        <mxCell id="UjBy2W333mnucXlfp_4j-33" value="" style="endArrow=none;html=1;rounded=0;exitX=0;exitY=0.5;exitDx=0;exitDy=0;entryX=1;entryY=0.5;entryDx=0;entryDy=0;" edge="1" parent="1" source="UjBy2W333mnucXlfp_4j-10">
          <mxGeometry width="50" height="50" relative="1" as="geometry">
            <mxPoint x="510.5" y="196.25" as="sourcePoint" />
            <mxPoint x="340" y="311.5" as="targetPoint" />
          </mxGeometry>
        </mxCell>
        <mxCell id="UjBy2W333mnucXlfp_4j-34" value="" style="endArrow=none;html=1;rounded=0;exitX=0;exitY=1;exitDx=0;exitDy=0;entryX=1;entryY=0.5;entryDx=0;entryDy=0;" edge="1" parent="1" source="l5c5falu1orTu4ODNzKj-3" target="UjBy2W333mnucXlfp_4j-10">
          <mxGeometry width="50" height="50" relative="1" as="geometry">
            <mxPoint x="665.5" y="152.5" as="sourcePoint" />
            <mxPoint x="542.5" y="230" as="targetPoint" />
          </mxGeometry>
        </mxCell>
        <mxCell id="UjBy2W333mnucXlfp_4j-35" value="1" style="text;html=1;align=center;verticalAlign=middle;whiteSpace=wrap;rounded=0;" vertex="1" parent="1">
          <mxGeometry x="267.5" y="-740" width="60" height="30" as="geometry" />
        </mxCell>
        <mxCell id="UjBy2W333mnucXlfp_4j-36" value="1" style="text;html=1;align=center;verticalAlign=middle;whiteSpace=wrap;rounded=0;" vertex="1" parent="1">
          <mxGeometry x="272.5" y="-475" width="50" height="20" as="geometry" />
        </mxCell>
        <mxCell id="UjBy2W333mnucXlfp_4j-41" value="1" style="text;html=1;align=center;verticalAlign=middle;whiteSpace=wrap;rounded=0;" vertex="1" parent="1">
          <mxGeometry x="272.5" y="36.25" width="60" height="30" as="geometry" />
        </mxCell>
        <mxCell id="UjBy2W333mnucXlfp_4j-43" value="1" style="text;html=1;align=center;verticalAlign=middle;whiteSpace=wrap;rounded=0;" vertex="1" parent="1">
          <mxGeometry x="335" y="295" width="60" height="30" as="geometry" />
        </mxCell>
        <mxCell id="UjBy2W333mnucXlfp_4j-44" value="1" style="text;html=1;align=center;verticalAlign=middle;whiteSpace=wrap;rounded=0;" vertex="1" parent="1">
          <mxGeometry x="695" y="98.75" width="60" height="30" as="geometry" />
        </mxCell>
        <mxCell id="UjBy2W333mnucXlfp_4j-45" value="1" style="text;html=1;align=center;verticalAlign=middle;whiteSpace=wrap;rounded=0;" vertex="1" parent="1">
          <mxGeometry x="277.5" y="280" width="60" height="30" as="geometry" />
        </mxCell>
        <mxCell id="UjBy2W333mnucXlfp_4j-46" value="1" style="text;html=1;align=center;verticalAlign=middle;whiteSpace=wrap;rounded=0;" vertex="1" parent="1">
          <mxGeometry x="810" y="540" width="60" height="30" as="geometry" />
        </mxCell>
        <mxCell id="UjBy2W333mnucXlfp_4j-47" value="1...*" style="text;html=1;align=center;verticalAlign=middle;whiteSpace=wrap;rounded=0;" vertex="1" parent="1">
          <mxGeometry x="1200" y="-265" width="60" height="30" as="geometry" />
        </mxCell>
        <mxCell id="UjBy2W333mnucXlfp_4j-49" value="1...*" style="text;html=1;align=center;verticalAlign=middle;whiteSpace=wrap;rounded=0;" vertex="1" parent="1">
          <mxGeometry x="1250" y="-173.75" width="60" height="30" as="geometry" />
        </mxCell>
        <mxCell id="UjBy2W333mnucXlfp_4j-52" value="1" style="text;html=1;align=center;verticalAlign=middle;whiteSpace=wrap;rounded=0;" vertex="1" parent="1">
          <mxGeometry x="360" y="-740" width="60" height="30" as="geometry" />
        </mxCell>
        <mxCell id="UjBy2W333mnucXlfp_4j-54" value="1....*" style="text;html=1;align=center;verticalAlign=middle;whiteSpace=wrap;rounded=0;" vertex="1" parent="1">
          <mxGeometry x="340" y="352.5" width="60" height="30" as="geometry" />
        </mxCell>
        <mxCell id="UjBy2W333mnucXlfp_4j-55" value="Views" style="rhombus;whiteSpace=wrap;html=1;" vertex="1" parent="1">
          <mxGeometry x="-410" y="11.25" width="80" height="80" as="geometry" />
        </mxCell>
        <mxCell id="UjBy2W333mnucXlfp_4j-56" value="" style="endArrow=none;html=1;rounded=0;exitX=0;exitY=0.5;exitDx=0;exitDy=0;" edge="1" parent="1" source="l5c5falu1orTu4ODNzKj-41">
          <mxGeometry width="50" height="50" relative="1" as="geometry">
            <mxPoint x="10" y="166.25" as="sourcePoint" />
            <mxPoint x="-110" y="160" as="targetPoint" />
          </mxGeometry>
        </mxCell>
        <mxCell id="UjBy2W333mnucXlfp_4j-57" value="" style="endArrow=none;html=1;rounded=0;exitX=0;exitY=1;exitDx=0;exitDy=0;entryX=0.5;entryY=0;entryDx=0;entryDy=0;" edge="1" parent="1" source="l5c5falu1orTu4ODNzKj-1" target="l5c5falu1orTu4ODNzKj-41">
          <mxGeometry width="50" height="50" relative="1" as="geometry">
            <mxPoint x="237.5" y="111.25" as="sourcePoint" />
            <mxPoint x="89.5" y="112.25" as="targetPoint" />
          </mxGeometry>
        </mxCell>
        <mxCell id="UjBy2W333mnucXlfp_4j-58" value="" style="endArrow=none;html=1;rounded=0;entryX=0;entryY=1;entryDx=0;entryDy=0;exitX=0.5;exitY=0;exitDx=0;exitDy=0;" edge="1" parent="1" source="UjBy2W333mnucXlfp_4j-55" target="l5c5falu1orTu4ODNzKj-5">
          <mxGeometry width="50" height="50" relative="1" as="geometry">
            <mxPoint x="-210" y="-30" as="sourcePoint" />
            <mxPoint x="-160" y="-80" as="targetPoint" />
            <Array as="points">
              <mxPoint x="-370" y="-740" />
            </Array>
          </mxGeometry>
        </mxCell>
        <mxCell id="UjBy2W333mnucXlfp_4j-59" value="" style="endArrow=none;html=1;rounded=0;exitX=0;exitY=1;exitDx=0;exitDy=0;" edge="1" parent="1" source="l5c5falu1orTu4ODNzKj-18">
          <mxGeometry width="50" height="50" relative="1" as="geometry">
            <mxPoint x="-160" y="492.9090465198864" as="sourcePoint" />
            <mxPoint x="-370" y="90" as="targetPoint" />
            <Array as="points">
              <mxPoint x="-370" y="370" />
            </Array>
          </mxGeometry>
        </mxCell>
        <mxCell id="UjBy2W333mnucXlfp_4j-60" value="" style="endArrow=none;html=1;rounded=0;entryX=-0.003;entryY=0.601;entryDx=0;entryDy=0;entryPerimeter=0;exitX=1.003;exitY=0.188;exitDx=0;exitDy=0;exitPerimeter=0;" edge="1" parent="1" target="l5c5falu1orTu4ODNzKj-144">
          <mxGeometry width="50" height="50" relative="1" as="geometry">
            <mxPoint x="347.5" y="-764" as="sourcePoint" />
            <mxPoint x="402" y="-776" as="targetPoint" />
          </mxGeometry>
        </mxCell>
        <mxCell id="UjBy2W333mnucXlfp_4j-62" value="" style="endArrow=none;html=1;rounded=0;exitX=0.544;exitY=-0.01;exitDx=0;exitDy=0;exitPerimeter=0;" edge="1" parent="1" source="l5c5falu1orTu4ODNzKj-11">
          <mxGeometry width="50" height="50" relative="1" as="geometry">
            <mxPoint x="1260" y="-240" as="sourcePoint" />
            <mxPoint x="1260" y="-510" as="targetPoint" />
          </mxGeometry>
        </mxCell>
        <mxCell id="UjBy2W333mnucXlfp_4j-63" value="1....*" style="text;html=1;align=center;verticalAlign=middle;whiteSpace=wrap;rounded=0;" vertex="1" parent="1">
          <mxGeometry x="97.5" y="340" width="110" height="30" as="geometry" />
        </mxCell>
        <mxCell id="UjBy2W333mnucXlfp_4j-65" value="1" style="text;html=1;align=center;verticalAlign=middle;whiteSpace=wrap;rounded=0;" vertex="1" parent="1">
          <mxGeometry x="262.5" y="-63.75" width="60" height="30" as="geometry" />
        </mxCell>
        <mxCell id="UjBy2W333mnucXlfp_4j-66" value="1.....*" style="text;html=1;align=center;verticalAlign=middle;whiteSpace=wrap;rounded=0;" vertex="1" parent="1">
          <mxGeometry x="272.5" y="-390" width="60" height="30" as="geometry" />
        </mxCell>
        <mxCell id="UjBy2W333mnucXlfp_4j-67" value="1" style="text;html=1;align=center;verticalAlign=middle;whiteSpace=wrap;rounded=0;" vertex="1" parent="1">
          <mxGeometry x="147.5" y="21.25" width="60" height="30" as="geometry" />
        </mxCell>
        <mxCell id="UjBy2W333mnucXlfp_4j-68" value="1....*" style="text;html=1;align=center;verticalAlign=middle;whiteSpace=wrap;rounded=0;" vertex="1" parent="1">
          <mxGeometry x="-100" y="121.25" width="60" height="30" as="geometry" />
        </mxCell>
      </root>
    </mxGraphModel>
  </diagram>
</mxfile>
